<?xml version="1.0" encoding="utf-8"?>
<!-- Generator: Adobe Illustrator 24.2.0, SVG Export Plug-In . SVG Version: 6.00 Build 0)  -->
<svg version="1.1" xmlns="http://www.w3.org/2000/svg" xmlns:xlink="http://www.w3.org/1999/xlink" x="0px" y="0px"
	 viewBox="0 0 50 50" style="enable-background:new 0 0 50 50;" xml:space="preserve">
<style type="text/css">
	.st0{fill:url(#SVGID_1_);}
	.st1{fill:#565656;}
</style>
<g id="Слой_1">
	<linearGradient id="SVGID_1_" gradientUnits="userSpaceOnUse" x1="25" y1="47.4493" x2="25" y2="-2.7193">
		<stop  offset="0" style="stop-color:#FFFFFF"/>
		<stop  offset="0" style="stop-color:#E856CD"/>
		<stop  offset="0.0783" style="stop-color:#D755CE"/>
		<stop  offset="0.3885" style="stop-color:#9650D2"/>
		<stop  offset="0.65" style="stop-color:#674DD5"/>
		<stop  offset="0.8497" style="stop-color:#4A4BD7"/>
		<stop  offset="0.9637" style="stop-color:#3F4AD8"/>
		<stop  offset="0.9826" style="stop-color:#3D48D7"/>
		<stop  offset="0.9894" style="stop-color:#3642D3"/>
		<stop  offset="0.9943" style="stop-color:#2B36CB"/>
		<stop  offset="0.9982" style="stop-color:#1A26C1"/>
		<stop  offset="1" style="stop-color:#0F1CBA"/>
	</linearGradient>

	<path  class="st0" d="M41.35,29.49c-0.19,1.92-0.81,3.39-1.84,4.42c-1.04,1.03-2.43,1.54-4.18,1.54c-1.72,0-3.15-0.58-4.27-1.75
		c-1.13-1.17-1.69-2.64-1.69-4.43c0-1.85,0.57-3.38,1.72-4.58c1.15-1.2,2.6-1.8,4.36-1.8c2.77,0,4.65,1.49,5.64,4.48l8.85-0.58
		c-0.78-3.36-2.13-5.98-4.03-7.86c-2.74-2.72-6.16-4.08-10.25-4.08c-2.29,0-4.36,0.46-6.25,1.3V9c0-2.91-0.66-5.13-1.99-6.68
		C26.08,0.77,24.17,0,21.67,0c-1.57,0-2.9,0.3-3.97,0.89c-1.07,0.59-2.08,1.58-3.01,2.97C13.16,1.29,10.97,0,8.12,0
		c-2.4,0-4.35,0.77-5.86,2.32S0,5.86,0,8.3v19.67h8.26V10.22c0-1.45,0.41-2.18,1.22-2.18c0.43,0,0.72,0.15,0.87,0.44
		c0.15,0.29,0.22,0.87,0.22,1.74v17.75h8.26V10.08c0-1.36,0.41-2.04,1.22-2.04c0.43,0,0.72,0.14,0.86,0.43
		c0.14,0.29,0.21,0.87,0.21,1.75v16.2c-0.17,0.91-0.26,1.86-0.26,2.85c0,4.04,1.39,7.42,4.18,10.14c2.79,2.73,6.25,4.09,10.39,4.09
		c4.07,0,7.37-1.2,9.9-3.6c2.53-2.4,4.08-5.8,4.65-10.19L41.35,29.49z">
		 <animate  attributeName = "viewBox" begin = "0s" dur = "10s" values = "-550 -550 1200 1200;-25 -25 150 150;-550 -550 1200 1200" 
  fill = "freeze" repeatCount="indefinite" /> 
		</path>

	<ellipse class="st1" cx="25" cy="48.75" rx="25" ry="1.03"/>
</g>

</svg>
